<svg width="512" height="512" xmlns="http://www.w3.org/2000/svg">
 <defs>
  <linearGradient y2="Infinity" y1="Infinity" x2="Infinity" x1="Infinity" id="SVGID_1_">
   <stop stop-color="#E05955" offset="0"/>
   <stop stop-color="#E05955" stop-opacity="0" offset="1"/>
  </linearGradient>
 </defs>
 <g>
  <title>background</title>
  <rect fill="none" id="canvas_background" height="402" width="582" y="-1" x="-1"/>
 </g>
 <g>
  <title>Layer 1</title>
  <circle id="svg_1" r="256" fill="#329aef" cy="256" cx="256"/>
  <path id="svg_2" opacity="0.1" d="m508.434544,253.623029c0,-4.714 -0.137,-9.396 -0.389,-14.047l-181.72,-147.907l-6.659,6.392l-68.104,-67.366l0,59.299c0,0 -72.496,58.599 -75.383,67.261c-2.888,8.663 0,35.062 0,35.062l17.737,14.437l1.513,18.012l-59.798,-54.593l3.287,8.05l-1.237,11.55l-23.261,-19.297c0,0 -4.513,3.691 -3.688,10.566c0.825,6.875 10.175,12.925 10.175,12.925l-1.786,40.884l93.359,92.762l-18.743,49.769l159.017,111.83c91.521,-39.022 155.68,-129.809 155.68,-235.589z"/>
  <polygon id="svg_3" points="278.914,379.731 284.814,408.983 286.374,395.577 295.036,430.082 300.868,398.207    304.733,408.983 309.514,379.731  " fill="#E25252"/>
  <polygon id="svg_4" points="205.783,379.799 212.167,425.01 215.466,400.346 221.241,461.281 227.841,406.149 232.791,425.01    237.441,379.748  " fill="#E25252"/>
  <path id="svg_5" opacity="0.5" fill="#1589BC" d="m304.317,464.665c-19.406,0 -36.43,2.467 -46.071,6.176c-9.123,-2.29 -21.52,-3.7 -35.189,-3.7c-28.021,0 -50.736,5.916 -50.736,13.215c0,7.298 22.715,13.214 50.736,13.214c18.219,0 34.188,-2.502 43.136,-6.258c9.822,2.339 23.275,3.783 38.125,3.783c30.071,0 45.374,-6.34 45.374,-13.638c-0.001,-7.299 -15.304,-12.792 -45.375,-12.792z"/>
  <path id="svg_6" opacity="0.5" fill="#CCA015" d="m300.29,468.24c-17.804,0 -33.421,1.832 -42.266,4.589c-8.369,-1.701 -19.743,-2.75 -32.284,-2.75c-25.706,0 -46.545,4.397 -46.545,9.821s20.839,9.819 46.545,9.819c16.714,0 31.364,-1.859 39.573,-4.649c9.012,1.738 21.354,2.811 34.977,2.811c27.587,0 42.801,-4.382 42.801,-9.806s-15.215,-9.835 -42.801,-9.835z"/>
  <polygon id="svg_7" points="209.805,379.759 212.469,407.642 215.15,386.743 221.345,432.667 227.662,392.517 232.337,411.561    233.626,379.759  " fill="#CCA015"/>
  <polygon id="svg_8" points="222.295,379.787 221.131,460.337 227.841,406.149 232.791,425.01 237.441,379.748     " opacity="0.2" fill="#1C1C1C"/>
  <polygon id="svg_9" points="281.423,379.731 284.208,395.371 287.301,389.802 295.18,419.708 300.212,390.214 304.337,399.29    307.121,379.697  " fill="#CCA015"/>
  <ellipse id="svg_10" ry="4.022" rx="24.337" opacity="0.5" fill="#E25252" cy="479.003" cx="224.5"/>
  <ellipse id="svg_11" ry="3.503" rx="18.493" opacity="0.5" fill="#E25252" cy="476.941" cx="298.473"/>
  <polygon id="svg_12" points="295.036,379.731 295.036,429.985 300.868,398.207 304.733,408.983 309.514,379.731     " opacity="0.2" fill="#1C1C1C"/>
  <path id="svg_13" fill="#C6C6C6" d="m294.543,324.843c-13.616,0.002 -24.649,24.589 -24.645,54.916l49.308,-0.005c-0.004,-30.328 -11.046,-54.912 -24.663,-54.911z"/>
  <path id="svg_14" fill="#A9AAAD" d="m318.952,371.928c-20.763,5.411 -43.805,1.352 -48.819,0.349c-0.15,2.448 -0.233,4.942 -0.233,7.482l49.308,-0.005c-0.001,-2.659 -0.091,-5.269 -0.256,-7.826z"/>
  <path id="svg_16" fill="#C6C6C6" d="m221.945,324.843c-13.616,0.002 -24.649,24.589 -24.644,54.916l49.307,-0.005c-0.005,-30.328 -11.047,-54.912 -24.663,-54.911z"/>
  <path id="svg_17" fill="#A9AAAD" d="m246.354,371.928c-20.764,5.411 -43.805,1.352 -48.82,0.349c-0.15,2.448 -0.234,4.942 -0.233,7.482l49.307,-0.005c0,-2.659 -0.09,-5.269 -0.254,-7.826z"/>
  <path id="svg_18" opacity="0.2" fill="#1C1C1C" d="m222.437,379.756l24.171,-0.002c-0.005,-29.961 -10.782,-54.299 -24.171,-54.884l0,54.886z"/>
  <path id="svg_19" opacity="0.2" fill="#1C1C1C" d="m295.036,379.756l24.171,-0.002c-0.005,-29.961 -10.783,-54.299 -24.171,-54.884l0,54.886z"/>
  <path id="svg_20" fill="#FB756A" d="m310.797,205.206l-107.454,0c-10.285,0 -18.7,8.415 -18.7,18.7l0,92.583c0,10.285 8.415,18.7 18.7,18.7l107.455,0c10.285,0 18.699,-8.415 18.699,-18.7l0,-92.583c0,-10.285 -8.414,-18.7 -18.7,-18.7z"/>
  <path id="svg_21" fill="#EF6962" d="m310.797,205.206l-56.53,0l0,129.983l56.53,0c10.285,0 18.699,-8.415 18.699,-18.7l0,-92.583c0.001,-10.285 -8.413,-18.7 -18.699,-18.7z"/>
  <polygon id="svg_22" points="304.935,262.548 254.199,262.342 243.818,250.965 265.775,220.526 269.048,222.847  " fill="url(#SVGID_1_)"/>
  <ellipse id="svg_24" ry="19.064" rx="17.737" fill="#52FFC9" cy="237.765" cx="257.254"/>
  <path id="svg_25" opacity="0.2" fill="#1C1C1C" d="m257.151,219.114c-0.993,0 -1.966,0.093 -2.913,0.262c-1.774,2.697 -13.182,21.362 -0.41,36.907c1.076,0.221 2.187,0.341 3.323,0.341c9.688,0 17.54,-8.397 17.54,-18.755c0,-10.359 -7.853,-18.755 -17.54,-18.755z"/>
  <path id="svg_26" fill="none" d="m272.682,228.378c-8.197,6.85 -22.111,7.069 -31.109,0.49"/>
  <path id="svg_27" fill="none" d="m273.352,245.892c-8.369,6.994 -22.748,7.09 -32.148,0.217"/>
  <path id="svg_29" fill="#3EB54A" d="m273.611,246.202c1.149,-2.554 1.793,-5.416 1.793,-8.436c0,-10.74 -8.142,-19.477 -18.149,-19.477s-18.149,8.737 -18.149,19.477c0,3.099 0.682,6.03 1.887,8.634l-0.031,0.042c0.024,0.018 0.051,0.032 0.075,0.05c2.988,6.368 9.134,10.75 16.219,10.75c7.187,0 13.411,-4.506 16.349,-11.024c0.005,-0.003 0.01,-0.006 0.014,-0.01l-0.008,-0.006zm-16.757,-2.672c6.438,0 12.841,-1.89 17.722,-5.63c-0.019,2.784 -0.606,5.423 -1.644,7.792c-8.167,6.684 -22.067,6.784 -31.25,0.238c-1.021,-2.247 -1.632,-4.746 -1.734,-7.385c4.86,3.32 10.89,4.985 16.906,4.985zm-16.919,-5.983c0.031,-2.896 0.678,-5.635 1.807,-8.073c4.373,3.052 9.827,4.583 15.236,4.583c5.704,0 11.334,-1.704 15.563,-5.058c1.174,2.362 1.889,5.025 2.017,7.853c-9.274,7.522 -24.672,7.842 -34.623,0.695zm17.319,-18.433c6.33,0 11.876,3.676 14.898,9.147c-7.988,6.444 -21.3,6.649 -30.046,0.466c2.961,-5.728 8.64,-9.613 15.148,-9.613zm0,37.303c-6.271,0 -11.776,-3.606 -14.816,-8.994c4.441,2.776 9.773,4.173 15.025,4.173c5.32,0 10.544,-1.429 14.655,-4.264c-3.029,5.437 -8.557,9.085 -14.864,9.085z"/>
  <rect id="svg_31" y="262.678" x="215.443" width="85.425" height="60.077" fill="#F4343D"/>
  <rect id="svg_32" y="264.185" x="217.6" width="81.542" height="56.921" fill="#EF3F48"/>
  <rect id="svg_33" y="262.678" x="261.504" width="39.363" opacity="0.2" height="60.077" fill="#1C1C1C"/>
  <ellipse id="svg_35" ry="2.815" rx="3.108" fill="#818285" cy="268.844" cx="222.265"/>
  <polygon id="svg_36" points="224.282,267.173 219.779,269.75 220.248,270.514 224.751,267.938   " fill="#5A5A5D"/>
  <ellipse id="svg_38" ry="2.815" rx="3.108" fill="#818285" cy="268.844" cx="294.726"/>
  <polygon id="svg_39" points="296.744,267.173 292.24,269.75 292.708,270.514 297.212,267.938   " fill="#5A5A5D"/>
  <ellipse id="svg_41" ry="2.814" rx="3.108" fill="#818285" cy="316.074" cx="222.265"/>
  <polygon id="svg_42" points="224.282,314.403 219.779,316.98 220.248,317.745 224.751,315.167   " fill="#5A5A5D"/>
  <ellipse id="svg_44" ry="2.814" rx="3.108" fill="#818285" cy="316.074" cx="294.726"/>
  <polygon id="svg_45" points="296.744,314.403 292.24,316.98 292.708,317.745 297.212,315.167   " fill="#5A5A5D"/>
  <ellipse id="svg_46" ry="9.9" rx="10.643" fill="#72DD72" cy="289.686" cx="200.979"/>
  <path id="svg_47" opacity="0.2" fill="#1C1C1C" d="m202.088,280.179c-4.4,1.222 -7.631,5.206 -7.631,9.944c0,3.822 2.104,7.151 5.226,8.94c0.367,0.036 0.739,0.057 1.116,0.057c5.714,0 10.347,-4.259 10.347,-9.511c0,-4.85 -3.954,-8.846 -9.058,-9.43z"/>
  <ellipse id="svg_48" ry="9.9" rx="10.643" fill="#FC5959" cy="289.686" cx="314.885"/>
  <path id="svg_49" opacity="0.2" fill="#1C1C1C" d="m315.055,280.11c-3.619,1.705 -6.149,5.592 -6.149,10.117c0,3.646 1.646,6.868 4.175,8.88c0.544,0.081 1.098,0.134 1.668,0.134c5.743,0 10.398,-4.285 10.398,-9.572c0,-5.193 -4.493,-9.41 -10.092,-9.559z"/>
  <path id="svg_51" fill="#2175BC" d="m201.042,289.582c0,2.295 -1.458,3.513 -3.239,3.513c-1.842,0 -3.136,-1.366 -3.136,-3.384c0,-2.117 1.377,-3.503 3.24,-3.503c1.904,0 3.135,1.395 3.135,3.374zm-5.413,0.108c0,1.426 0.807,2.701 2.226,2.701c1.429,0 2.236,-1.257 2.236,-2.771c0,-1.325 -0.725,-2.712 -2.226,-2.712c-1.49,0.001 -2.236,1.317 -2.236,2.782z"/>
  <path id="svg_52" fill="#2175BC" d="m202.215,292.985l0,-6.67l0.983,0l2.236,3.375c0.517,0.782 0.921,1.485 1.252,2.167l0.02,-0.009c-0.083,-0.893 -0.103,-1.703 -0.103,-2.742l0,-2.791l0.849,0l0,6.67l-0.911,0l-2.215,-3.384c-0.486,-0.741 -0.952,-1.504 -1.304,-2.226l-0.031,0.01c0.052,0.84 0.072,1.642 0.072,2.75l0,2.85l-0.848,0z"/>
  <path id="svg_54" fill="#FAED25" d="m313.386,289.918c0,2.295 -1.458,3.513 -3.238,3.513c-1.843,0 -3.137,-1.366 -3.137,-3.384c0,-2.117 1.378,-3.503 3.239,-3.503c1.906,0 3.136,1.396 3.136,3.374zm-5.412,0.109c0,1.425 0.808,2.701 2.226,2.701c1.428,0 2.234,-1.257 2.234,-2.771c0,-1.325 -0.724,-2.711 -2.225,-2.711c-1.489,0.001 -2.235,1.316 -2.235,2.781z"/>
  <path id="svg_55" fill="#FAED25" d="m314.559,286.652l3.757,0l0,0.724l-2.855,0l0,2.216l2.64,0l0,0.713l-2.64,0l0,3.018l-0.901,0l0,-6.671l-0.001,0z"/>
  <path id="svg_56" fill="#FAED25" d="m319.604,286.652l3.757,0l0,0.724l-2.856,0l0,2.216l2.64,0l0,0.713l-2.64,0l0,3.018l-0.9,0l0,-6.671l-0.001,0z"/>
  <path id="svg_57" opacity="0.4" fill="#1C1C1C" d="m286.498,269.335l-0.464,0c-1.06,0 -1.926,0.866 -1.926,1.925l0,41.799c0,1.059 0.866,1.925 1.925,1.925l0.465,0c1.059,0 1.925,-0.866 1.925,-1.925l0,-41.799c-0.001,-1.058 -0.867,-1.925 -1.925,-1.925z"/>
  <path id="svg_58" fill="#FAED25" d="m286.265,274.01c-1.187,0 -2.157,0.929 -2.157,2.063l0,7.425c0,1.135 0.971,2.063 2.157,2.063s2.157,-0.928 2.157,-2.063l0,-7.425c0,-1.134 -0.97,-2.063 -2.157,-2.063z"/>
  <path id="svg_59" fill="#009548" d="m286.265,287.21c-1.187,0 -2.157,0.928 -2.157,2.063l0,7.425c0,1.135 0.971,2.063 2.157,2.063s2.157,-0.928 2.157,-2.063l0,-7.425c0,-1.135 -0.97,-2.063 -2.157,-2.063z"/>
  <path id="svg_60" fill="#2175BC" d="m286.265,300.41c-1.187,0 -2.157,0.929 -2.157,2.063l0,7.425c0,1.135 0.971,2.063 2.157,2.063s2.157,-0.928 2.157,-2.063l0,-7.425c0,-1.135 -0.97,-2.063 -2.157,-2.063z"/>
  <path id="svg_61" fill="#D64B47" d="m309.1,232.705c-0.286,-5.591 1.944,-11.347 6.123,-15.791l-0.601,-0.564c-4.331,4.607 -6.645,10.583 -6.347,16.398c0.258,5.001 2.418,9.504 6.085,12.68l0.54,-0.624c-3.494,-3.028 -5.555,-7.324 -5.8,-12.099z"/>
  <path id="svg_62" fill="#D64B47" d="m205.366,234.526c0.287,-5.591 -1.944,-11.347 -6.123,-15.791l0.601,-0.564c4.331,4.607 6.644,10.583 6.346,16.398c-0.257,5.001 -2.418,9.504 -6.084,12.68l-0.541,-0.624c3.496,-3.028 5.556,-7.324 5.801,-12.099z"/>
  <path id="svg_63" fill="#B72929" d="m314.885,279.786c-5.877,0 -10.643,4.432 -10.643,9.899s4.766,9.9 10.643,9.9c5.878,0 10.644,-4.433 10.644,-9.9s-4.766,-9.899 -10.644,-9.899zm0,19.196c-5.519,0 -9.994,-4.163 -9.994,-9.297s4.476,-9.296 9.994,-9.296c5.52,0 9.994,4.162 9.994,9.296s-4.474,9.297 -9.994,9.297z"/>
  <path id="svg_64" fill="#198E19" d="m200.979,279.786c-5.878,0 -10.643,4.432 -10.643,9.899s4.765,9.9 10.643,9.9s10.643,-4.433 10.643,-9.9s-4.765,-9.899 -10.643,-9.899zm0,19.263c-5.56,0 -10.066,-4.192 -10.066,-9.364s4.507,-9.363 10.066,-9.363s10.067,4.191 10.067,9.363s-4.507,9.364 -10.067,9.364z"/>
  <path id="svg_65" fill="#B7B7B6" d="m386.923,201.73l-0.775,-10.691l-16.199,0.746l0.699,28.524l-44.674,-1.798c-7.245,0.28 -12.497,6.139 -11.729,13.083c0.767,6.946 7.261,12.349 14.506,12.068c0,0 50.668,-1.013 50.644,-1.238c-0.025,-0.225 7.766,-1.544 8.888,-8.698s-1.36,-31.996 -1.36,-31.996z"/>
  <path id="svg_66" fill="#5A5A5D" d="m384.746,165.489c0.049,1.973 0.064,3.945 0.067,5.918c1.715,1.63 2.866,3.693 3.117,5.979c0.611,5.558 -4.261,10.27 -10.883,10.524c-6.623,0.255 -12.486,-4.045 -13.098,-9.603c-0.252,-2.297 0.44,-4.443 1.801,-6.193c-0.702,-1.717 -1.44,-3.424 -2.153,-5.138c-3.562,2.912 -5.577,7.174 -5.063,11.855c0.917,8.337 9.468,14.796 19.101,14.426c9.632,-0.37 16.697,-7.428 15.78,-15.766c-0.557,-5.069 -3.941,-9.435 -8.669,-12.002z"/>
  <path id="svg_68" fill="#4D7A99" d="m383.415,246.344l-0.098,-0.819c3.474,-0.419 6.484,-1.986 8.052,-4.194c0.986,-1.39 1.333,-2.926 1,-4.444l0.806,-0.177c0.384,1.751 -0.008,3.514 -1.134,5.098c-1.7,2.394 -4.924,4.09 -8.626,4.536z"/>
  <path id="svg_69" fill="#C6C6C6" d="m185.967,221.343l-46.271,2.647l-2.088,-27.385l-16.918,-0.381l0.25,10.274c0,0 -0.127,23.889 1.746,30.73c1.874,6.841 10.104,7.947 10.1,8.163s52.778,0.143 52.778,0.143c7.561,0.12 13.781,-5.198 13.893,-11.879c0.109,-6.679 -5.929,-12.192 -13.49,-12.312z"/>
  <path id="svg_70" fill="#AFAFAE" d="m171.693,222.16l-31.805,1.615l-2.183,-27.19l-1.89,-0.019c-0.141,0.196 -0.282,0.392 -0.413,0.604c0,0 4.537,22.894 2.063,28.462c-0.001,-0.001 19.778,-2.142 34.228,-3.472z"/>
  <path id="svg_71" fill="#656566" d="m139.196,172.551c-0.199,1.888 -0.432,3.774 -0.678,5.66c1.5,1.65 2.385,3.683 2.347,5.881c-0.092,5.346 -5.529,9.592 -12.145,9.486c-6.615,-0.107 -11.904,-4.527 -11.812,-9.873c0.038,-2.209 0.998,-4.224 2.569,-5.826c-0.481,-1.678 -1.001,-3.35 -1.493,-5.026c-3.908,2.596 -6.449,6.563 -6.526,11.066c-0.138,8.019 7.551,14.645 17.173,14.801c9.623,0.155 17.536,-6.219 17.673,-14.237c0.084,-4.876 -2.73,-9.23 -7.108,-11.932z"/>
  <path id="svg_73" fill="#4D7A99" d="m128.046,248.961c-0.838,0 -1.698,-0.17 -2.557,-0.512c-2.729,-1.084 -5.14,-3.815 -6.451,-7.305l0.772,-0.29c1.231,3.276 3.468,5.829 5.983,6.829c1.585,0.629 3.159,0.602 4.554,-0.082l0.362,0.741c-0.843,0.413 -1.74,0.619 -2.663,0.619z"/>
  <rect id="svg_75" y="38.064" x="254.847" width="0.825" height="56.923" fill="#FB756A"/>
  <path id="svg_76" fill="#bc0000" d="m333.682,101.419757c-0.018,-5.445 -4.487,-9.885 -9.932,-9.867l-136.684,0.449c-5.445,0.018 -9.885,4.487 -9.867,9.932l0.29,88.08c0.018,5.445 4.487,9.885 9.932,9.867l136.683,-0.449c5.444,-0.018 9.885,-4.487 9.867,-9.932l-0.289,-88.08z"/>
  <path id="svg_78" fill="#818285" d="m188.94,98.4c-3.259,-0.265 -6.022,2.016 -6.173,5.093c-0.15,3.077 2.37,5.786 5.629,6.05c3.259,0.265 6.022,-2.016 6.173,-5.094c0.15,-3.077 -2.37,-5.785 -5.629,-6.049z"/>
  <rect id="svg_79" y="98.893" x="187.804" width="1.728" transform="matrix(0.7885,-0.615,0.615,0.7885,-24.0427,138.0276) " height="10.157" fill="#5A5A5D"/>
  <path id="svg_81" fill="#818285" d="m323.687,98.4c-3.259,-0.265 -6.022,2.016 -6.173,5.093s2.37,5.786 5.629,6.05c3.259,0.265 6.022,-2.016 6.173,-5.094c0.149,-3.077 -2.37,-5.785 -5.629,-6.049z"/>
  <rect id="svg_82" y="98.893" x="322.551" width="1.728" transform="matrix(0.7884,-0.6152,0.6152,0.7884,4.4765,220.9568) " height="10.157" fill="#5A5A5D"/>
  <path id="svg_84" fill="#818285" d="m323.687,183.373c-3.259,-0.265 -6.022,2.016 -6.173,5.093s2.37,5.786 5.629,6.05c3.259,0.265 6.022,-2.016 6.173,-5.094c0.149,-3.077 -2.37,-5.785 -5.629,-6.049z"/>
  <rect id="svg_85" y="183.865" x="322.551" width="1.728" transform="matrix(0.7884,-0.6152,0.6152,0.7884,-47.7963,238.9377) " height="10.157" fill="#5A5A5D"/>
  <path id="svg_87" fill="#818285" d="m188.666,183.373c-3.26,-0.265 -6.023,2.016 -6.173,5.093c-0.151,3.077 2.369,5.786 5.628,6.05c3.259,0.265 6.023,-2.016 6.173,-5.094c0.15,-3.077 -2.37,-5.785 -5.628,-6.049z"/>
  <rect id="svg_88" y="183.865" x="187.529" width="1.728" transform="matrix(0.7884,-0.6152,0.6152,0.7884,-76.3678,155.8762) " height="10.157" fill="#5A5A5D"/>
  <path id="svg_89" fill="#EAD5C5" d="m214.858,157.982c0.527,13.939 18.782,26.29 40.772,25.959c21.99,-0.331 39.389,-11.898 38.861,-25.836l-79.633,-0.123z"/>
  <path id="svg_90" fill="#FFE7D7" d="m215.585,162.245l78.522,0c0.299,-1.35 0.437,-2.732 0.384,-4.14l-79.634,-0.123c0.056,1.443 0.31,2.867 0.728,4.263z"/>
  <path id="svg_91" fill="#FFE7D7" d="m232.069,179.02c6.68,3.177 14.823,5.053 23.562,4.922c8.508,-0.128 16.322,-1.943 22.684,-4.922l-46.246,0z"/>
  <path id="svg_92" opacity="0.1" fill="#1C1C1C" d="m323.75,92.146l-68.623,0.225l0,107.88l68.977,-0.227c5.444,-0.018 9.885,-4.487 9.867,-9.932l-0.289,-88.08c-0.017,-5.443 -4.487,-9.884 -9.932,-9.866z"/>
  <polygon id="svg_93" points="301.466,111.378 285.946,111.43 278.22,121.961 286.015,132.442 301.536,132.391 309.261,121.859     " fill="#818182"/>
  <polygon id="svg_94" points="234.617,122.104 226.892,132.636 211.372,132.688 203.577,122.206 211.303,111.674    226.823,111.624  " fill="#818182"/>
  <path id="svg_96" fill="#3E708C" d="m266.729,38.599l-0.825,-0.006c0.021,-2.986 -0.686,-5.79 -1.993,-7.897c-1.271,-2.047 -2.952,-3.182 -4.735,-3.195l0.006,-0.825c2.077,0.015 4.006,1.288 5.431,3.585c1.387,2.238 2.138,5.198 2.116,8.338z"/>
  <path id="svg_98" fill="#4D7A99" d="m270.481,38.995l-0.825,-0.005c0.064,-8.941 -4.232,-16.247 -9.579,-16.285l0.006,-0.825c5.801,0.041 10.465,7.719 10.398,17.115z"/>
  <ellipse id="svg_99" transform="matrix(0.0072,-1,1,0.0072,214.6454,293.9844) " ry="4.549" rx="5.82" fill="#52FFC9" cy="38.892" cx="255.379"/>
  <polygon id="svg_100" points="300.488,129.452 294.714,126.792 289.039,129.18 290.028,123.859 285.322,119.962 291.708,119.335    294.475,114.539 297.432,119.471 303.848,120.404 299.291,124.08  " fill="#4CD3D3"/>
  <polygon id="svg_101" points="224.591,129.124 218.817,126.463 213.141,128.851 214.13,123.531 209.424,119.634 215.81,119.007    218.577,114.21 221.535,119.143 227.951,120.075 223.393,123.751  " fill="#4CD3D3"/>
  <path stroke="null" style="vector-effect: non-scaling-stroke;" id="svg_102" opacity="0.1" fill="#1C1C1C" d="m260.523243,38.330757c0.022,-3.214 -1.995,-5.834 -4.508,-5.853c-0.043,0 -0.084,0.006 -0.126,0.007c-1.575,0.97 -2.677,3.048 -2.677,5.745c0,2.697 1.214,4.989 2.915,5.876c2.423,-0.114 4.373,-2.645 4.396,-5.775z"/>
  <polygon id="svg_103" points="218.725,111.65 218.725,132.663 226.892,132.636 234.617,122.104 226.823,111.624     " opacity="0.1" fill="#1C1C1C"/>
  <polygon id="svg_104" points="294.624,111.401 294.624,132.414 301.536,132.391 309.261,121.859 301.466,111.378     " opacity="0.1" fill="#1C1C1C"/>
 </g>
</svg>